HIERARCHY
ROOT Hips
{
  OFFSET 0.0 0.0 0.0
  CHANNELS 6 XPOSITION YPOSITION ZPOSITION ZROTATION XROTATION YROTATION 
  JOINT LeftUpLeg
  {
    OFFSET 0.089458038 -0.086670642 0.001016508
    CHANNELS 3 ZROTATION XROTATION YROTATION 
    JOINT LeftLeg
    {
      OFFSET 0.024072596 -0.332074774 -0.032704786
      CHANNELS 3 ZROTATION XROTATION YROTATION 
      JOINT LeftFoot
      {
        OFFSET 0.018499328 -0.43513933800000004 -0.043332908
        CHANNELS 3 ZROTATION XROTATION YROTATION 
        End Site
        {
          OFFSET -0.00039979600000000006 -0.04415028000000001 0.11987149000000001
        }
      }
    }
  }
  JOINT Spine
  {
    OFFSET 0.0 0.153594308 0.01060958
    CHANNELS 3 ZROTATION XROTATION YROTATION 
    JOINT Spine1
    {
      OFFSET -5.08e-07 0.264157968 -0.04310913400000001
      CHANNELS 3 ZROTATION XROTATION YROTATION 
      End Site
      {
        OFFSET -0.0029004260000000002 0.21508415200000003 0.025250648
      }
      JOINT RightArm
      {
        OFFSET -0.11156512199999999 -0.05365633 0.0010215879999999995
        CHANNELS 3 ZROTATION XROTATION YROTATION 
        JOINT RightForeArm
        {
          OFFSET -0.22852507 -0.0024996140000000003 0.003355594
          CHANNELS 3 ZROTATION XROTATION YROTATION 
          End Site
          {
            OFFSET -0.24944755799999999 -0.004210304 0.003662934
          }
        }
      }
      JOINT LeftArm
      {
        OFFSET 0.11280794400000002 -0.053656076000000004 0.0010208260000000003
        CHANNELS 3 ZROTATION XROTATION YROTATION 
        JOINT LeftForeArm
        {
          OFFSET 0.22728250200000003 -0.002494534 0.003357118
          CHANNELS 3 ZROTATION XROTATION YROTATION 
          End Site
          {
            OFFSET 0.249444002 -0.004214114 0.0036845240000000002
          }
        }
      }
    }
  }
  JOINT RightUpLeg
  {
    OFFSET -0.089458038 -0.086670642 0.001016508
    CHANNELS 3 ZROTATION XROTATION YROTATION 
    JOINT RightLeg
    {
      OFFSET -0.021981922000000004 -0.331726032 -0.03267837
      CHANNELS 3 ZROTATION XROTATION YROTATION 
      JOINT RightFoot
      {
        OFFSET -0.020501102000000004 -0.43533822 -0.043359578
        CHANNELS 3 ZROTATION XROTATION YROTATION 
        End Site
        {
          OFFSET 7.594600000000001e-05 -0.04415078800000001 0.11987225200000001
        }
      }
    }
  }
}
MOTION
Frames: 8
Frame Time: 0.033333
-0.47947072 0.8907579746565999 -1.25663706 2.0123993391717785 -2.891867303307314 18.155124342230376 -11.416929282601236 -17.0207118833613 11.152961254200461 0.6341357333591698 40.44043675481079 4.948586032456013 10.784776491896338 -12.670852976472613 -0.9341520594562444 3.4176827998149872 -3.7658504120959178 -5.804175655253184 -4.158224716232463 -11.564164255444616 -6.8860374924218295 91.94305471956339 -68.23938863903273 146.36473844122855 15.839719241900028 -24.97949589861757 33.68149670312502 -55.05541257852103 -45.18421145415433 -112.32920229757049 -17.230098162557212 -21.30795673858119 -40.437735414994044 1.6418710749304013 -42.996406240350865 12.92437935317973 -0.5203066287769406 62.54318845616051 -9.968081381327805 -2.128893978438458 -2.148682530567866 -0.010507388095601734 
-0.4858639 0.8935519746565999 -1.23968256 2.8731986887583765 -2.4909936825223338 26.88074052579315 -12.848668413777432 -15.643054190033265 5.135604722780601 0.9138483616530294 40.91145001506945 2.374045902892906 9.668475133385195 -11.996308616684031 -0.8800201956021017 0.7140293632153082 -3.9032563158368263 -5.686633649165965 -1.0227577556812926 -11.552751863115171 -6.935681014856775 90.5662729979964 -67.50912530354248 144.44932117152518 16.195688210873584 -24.70567190724447 34.59502767442506 -55.20740136302673 -45.36561103322611 -111.92502585343499 -17.31306788549994 -21.452652588600618 -40.39140965694843 1.7664434801076787 -40.18523356666243 17.52931679726442 -0.18689756118852657 52.06142306150803 -3.684794422781261 0.37732283504208536 -2.9649151092635426 -0.3862169953214849 
-0.49243488 0.8971003546566 -1.2212599400000002 3.779408764485216 -2.014808474958089 35.68363346962545 -13.182900305717421 -14.26533331745541 0.7795384545968409 0.8511914078585059 41.40443940898263 -1.1635421484621244 9.178194763251572 -10.928130209743859 -0.8782272175841205 -2.4026306714562327 -3.1323091719988034 -5.41070766707579 2.5979499626130904 -13.842690603125128 -6.638537476996778 88.46077156369161 -67.93653122104519 141.97504416355304 17.279475307614526 -25.60066745268438 35.50921775898 -55.55758857686787 -45.08651584336105 -111.93477936356976 -17.43088694113537 -21.5294375752499 -40.494525022848116 0.5810063064874323 -36.22667448977648 20.79998361717629 0.20516028640995063 41.8527661959131 1.6861928127848487 2.2149242664595885 -4.113260727152623 -0.5963360791101441 
-0.49702974000000005 0.9010576746565999 -1.20148604 4.547939515460936 -1.41924575468889 44.68578181456723 -13.128280136698475 -13.246406550846553 -3.013345205903753 0.9022912546905447 42.048389643931436 -4.495327848944797 8.395080277737407 -9.79503683115824 -0.8453234749486717 -5.102375425581666 -2.1924177259273385 -5.32180677861255 5.669970548912072 -16.126078337947398 -6.346482430068441 86.85138774993983 -67.79661479589748 139.92604205406258 18.553582210483288 -26.67489740722918 36.49675041484254 -55.860237674085724 -44.927129963984214 -111.82734048792547 -17.44114076262685 -21.32581597571348 -40.78012596789762 -1.763321123161631 -31.888718895063832 20.084483735577024 -1.111228555670233 33.39403111643211 8.21741681214162 5.589175814333169 -5.064781210616269 -1.021890321656701 
-0.49901094 0.9067853746565999 -1.17820948 4.539516184667017 -0.25844157826901515 54.47761614077838 -12.620593883238719 -12.817449326628596 -6.307074799878406 0.854217928712762 42.140405952429845 -6.696404120305596 8.146283807030521 -8.334569924332971 -0.8541214522907357 -7.718898380095314 -2.8421687124721857 -5.37493070931644 9.152153813267253 -14.364470098163558 -6.23960619125702 87.05846542519629 -67.94192024030033 139.66604407311686 18.604043648071343 -26.56446861627571 36.68635988129668 -56.8563934437754 -44.488208347540855 -112.8494509764612 -17.131207268659182 -20.984637781387587 -40.69616586752523 -4.147311354599252 -29.068738692440668 9.98253918425343 -5.3430789758957316 28.86438284756847 23.030342617056228 7.432834689729547 -4.132278108236054 -1.3856026974366402 
-0.49883821999999994 0.9125968946565999 -1.15650264 4.679144034322295 0.49878902493131455 63.653681592556204 -11.468961663698394 -12.565337652853316 -7.140586263070334 0.7634726757302073 42.37151564828098 -5.904534612935943 5.105205258332167 -6.663615797194949 -0.5152810502908393 -9.40620184567223 -2.4742328251859456 -5.2643217721236075 10.93290365820005 -14.636275768636924 -5.9647273625439725 86.3030191822362 -67.2026342249165 138.276933860098 19.595343153261144 -27.339435539883695 37.46642212602549 -57.00543841674884 -44.34507831838866 -113.19485364278874 -16.331875352734468 -20.061573573553506 -40.539522309100164 -4.416748656977916 -25.406162448142634 7.357089599381398 -7.094276299837178 27.855678312826186 29.47984436348915 6.878659607457746 -2.955773541389715 -1.4219921310654697 
-0.49582324000000005 0.9178419946565999 -1.1364518799999999 4.422392527666462 0.9259406779700081 71.9716772090945 -8.800954877655306 -12.771984172418406 -3.1938013650964283 0.9311045144259493 42.23451571390886 -3.1194171899404046 1.369812153849217 -5.341082426223973 0.0012052329236284514 -9.540095751519283 -2.531018377615197 -4.928820318771642 10.50228242914555 -15.118413699506247 -5.478776478570491 85.51143440837757 -66.3272430299418 136.80034258418965 19.797882167814116 -27.478148144190193 37.64049632721244 -57.1821285803879 -44.58021441075552 -113.4632869073594 -15.856251714786044 -19.48088967333924 -40.49388640016072 -3.6167367103439614 -21.97704889986481 6.500592415198262 -8.059899843276431 27.402409884031215 26.9238236515303 2.9994920881630858 -2.4210192482491992 -0.8452545327267368 
-0.49165256 0.9220431546565999 -1.11862108 3.164079796923118 1.7015245597591175 80.15340372150186 -5.406063992213827 -14.092234979546129 4.371092257470965 1.4125688178883795 41.65849171025584 0.8868879508125496 -1.4168187963777141 -4.253354310331932 0.4460284549551841 -8.87469872257664 -4.217947036561409 -4.561380473973874 9.428513512369722 -13.674655996711767 -5.0138728225244025 84.44490036948008 -66.09796040969364 135.46030045016818 20.272998664216665 -27.8952387684989 37.95477040639765 -57.882130762760404 -45.21378617326048 -113.76468949505373 -16.07113288116923 -19.58632218091485 -40.74087970092672 -3.933950332193217 -20.307465506315843 3.9518893971614326 -8.011396962432878 26.49311533756388 20.608704169470087 2.882172703554127 -2.0374599435667897 -0.8473357127111808 
